Format                                   : MPEG-4
Format profile                           : Base Media / Version 2
Codec ID                                 : mp42
File size                                : 1.36 GiB
Duration                                 : 2h 19mn
Overall bit rate mode                    : Variable
Overall bit rate                         : 1 395 Kbps

Video
ID                                       : 1
Format                                   : AVC
Format/Info                              : Advanced Video Codec
Format profile                           : High@L3.1
Format settings, CABAC                   : Yes
Format settings, ReFrames                : 4 frames
Codec ID                                 : avc1
Codec ID/Info                            : Advanced Video Coding
Duration                                 : 2h 19mn
Bit rate mode                            : Variable
Bit rate                                 : 1 328 Kbps
Maximum bit rate                         : 3 492 Kbps
Width                                    : 720 pixels
Height                                   : 532 pixels
Display aspect ratio                     : 4:3
Frame rate mode                          : Constant
Frame rate                               : 29.970 fps
Standard                                 : NTSC
Color space                              : YUV
Chroma subsampling                       : 4:2:0
Bit depth                                : 8 bits
Scan type                                : Progressive
Bits/(Pixel*Frame)                       : 0.116
Stream size                              : 1.30 GiB (95%)
Language                                 : English

Audio
ID                                       : 2
Format                                   : AAC
Format/Info                              : Advanced Audio Codec
Format profile                           : LC
Codec ID                                 : 40
Duration                                 : 2h 19mn
Bit rate mode                            : Variable
Bit rate                                 : 61.8 Kbps
Maximum bit rate                         : 71.0 Kbps
Channel(s)                               : 2 channels
Channel positions                        : Front: L R
Sampling rate                            : 48.0 KHz
Compression mode                         : Lossy
Stream size                              : 61.9 MiB (4%)
Title                                    : MP3 2-ch 48KHz
Language                                 : English

Screens.  http://bayimg.com/BaMnBAaeO

          http://bayimg.com/baMnEAAEo

          http://bayimg.com/baMNfaaEO

          http://bayimg.com/bamNHAaeo

Enjoy.